<?xml version='1.0' encoding='UTF-8' standalone='no'?>
<svg width="4000px" height="4000px" xmlns="http://www.w3.org/2000/svg"  viewBox="0 0 4000 4000" >

 <g id="park-polyline" fill="none" stroke="#4daf4a">
   <path d="M2023.08,1966.34 L2024.09,1967.74 L2024.74,1967.24 L2025.28,1966.81 L2027.01,1965.46 L2028.44,1964.34 L2029.98,1966.42 L2031.77,1968.81 L2032.91,1970.34 L2034.1,1969.52 L2034.94,1970.61 L2034.79,1970.73 L2034.91,1970.87 L2032.31,1972.84 L2029.37,1975.07 L2027.04,1976.83 L2024.1,1979.06 L2025.61,1979.87 L2027.4,1980.83 L2027.62,1980.95 L2029.03,1981.71 L2030.65,1982.59 L2030.82,1982.68 L2032.83,1983.76 L2034.82,1984.83 L2034.9,1984.87 L2035.16,1985.01 L2037.09,1986.06 L2038.54,1986.83 L2040.76,1988.03 L2042.54,1988.99 L2043.76,1989.65 L2044.93,1990.28 L2045.35,1990.5 L2047.17,1991.49 L2048.68,1992.3 L2048.99,1992.47 L2048.94,1992.83 L2048.75,1994.24 L2048.38,1996.94 L2048.22,1998.08 L2048.05,1999.32 L2047.87,2000.67 L2047.54,2003.11 L2047.18,2005.75 L2046.86,2008.09 L2046.62,2009.86 L2046.46,2011.05 L2046.22,2012.86 L2046.11,2013.62 L2046,2014.46 L2045.12,2015.14 L2044.59,2015.54 L2043.9,2016.07 L2042.77,2016.94 L2041.25,2018.11 L2040.88,2018.39 L2041.32,2019.25 L2042.5,2021.58 L2043.55,2023.64 L2044.05,2024.63 L2045.08,2026.65 L2044.39,2027.4 L2042.96,2028.97 L2041.35,2030.73 L2039.79,2032.44 L2039.67,2032.57 L2037.66,2034.77 L2037.52,2034.92 L2037.52,2034.92 L2035.8,2036.8 L2033.98,2038.8 L2032.73,2040.17 L2031.44,2041.58 L2030.09,2043.06 L2029.1,2044.15 L2028.01,2045.35 L2026.27,2047.25 L2025,2048.65 L2024.44,2049.26 L2023.66,2048.84 L2019.39,2046.51 L2017.19,2045.31 L2015.07,2044.16 L2009.21,2040.97 L2008.27,2040.46 L2006.45,2039.46 L2006.13,2039.29 L2004.69,2038.5 L2004.61,2038.46 L2003.71,2037.97 L2003.43,2037.82 L2003.24,2037.71 L2002.86,2037.68 L2002.05,2037.61 L2000,2037.43 L1998.94,2037.33 L1996.18,2037.09 L1995.63,2037.04 L1993.26,2036.84 L1990.83,2036.62 L1988.84,2036.45 L1987.82,2036.36 L1985.45,2036.15 L1982.65,2035.91 L1982.06,2035.86 L1981.62,2034.92 L1979.5,2030.46 L1979.24,2029.91 L1977.74,2029.81 L1976.05,2029.69 L1974.61,2029.58 L1970.17,2029.28 L1967.01,2029.05 L1964.02,2028.84 L1963.78,2028.6 L1962.36,2027.09 L1962.15,2026.88 L1958.79,2023.32 L1957.41,2021.88 L1955.4,2019.78 L1954.53,2018.87 L1953.16,2017.43 L1951.24,2015.4 L1950.37,2014.49 L1950.25,2014.36 L1950.26,2013.86 L1950.27,2012.45 L1950.28,2011.32 L1950.3,2009.97 L1950.32,2008.39 L1950.34,2006.66 L1950.34,2005.81 L1950.36,2004.32 L1950.38,2002.44 L1950.4,2001.01 L1950.41,1999.53 L1950.42,1998.48 L1950.43,1997.73 L1950.45,1996.33 L1950.46,1995.14 L1950.46,1994.7 L1950.79,1994.16 L1951.35,1993.26 L1951.81,1992.52 L1952.25,1991.8 L1953.1,1990.44 L1953.6,1989.62 L1954.4,1988.32 L1955.35,1986.79 L1955.89,1985.91 L1956.24,1985.35 L1957.05,1984.05 L1957.7,1982.99 L1958.02,1982.47 L1958.69,1981.39 L1959.27,1980.45 L1960.05,1979.19 L1960.78,1978.01 L1961.14,1977.43 L1962.47,1975.29 L1963.03,1974.37 L1963.8,1973.13 L1964.62,1971.81 L1965.66,1970.12 L1966.45,1968.84 L1966.93,1968.07 L1967.88,1966.54 L1968.55,1965.46 L1968.95,1964.8 L1970.37,1964.06 L1971.8,1963.32 L1973.93,1962.2 L1975.73,1961.26 L1976.28,1960.97 L1977.74,1960.21 L1980.09,1958.98 L1982.47,1957.74 L1983.34,1957.28 L1985.14,1956.34 L1987.01,1955.37 L1988.24,1954.72 L1989.85,1953.88 L1991.24,1953.15 L1993.67,1951.89 L1994.39,1951.51 L1994.78,1951.58 L1997.14,1952 L1999.83,1952.48 L2001.11,1952.7 L2001.99,1952.86 L2003.65,1953.15 L2006.17,1953.6 L2008.18,1953.96 L2011.03,1954.47 L2012.45,1954.72 L2014.97,1955.17 L2015.22,1955.51 L2016.62,1957.44 L2017.77,1959.02 L2019.46,1961.35 L2020.84,1963.26 L2021.73,1964.49 L2022.58,1965.65 L2023.08,1966.34"/>
   <path d="M2153.35,2223.44 L2154.54,2224.21 L2154.99,2223.52 L2158.45,2225.76 L2158,2226.45 L2158.27,2226.65 L2158.79,2227.05 L2158.82,2227.07 L2158.82,2227.07 L2158.83,2227.07 L2158.84,2227.07 L2158.85,2227.08 L2158.87,2227.09 L2158.94,2227.15 L2158.97,2227.18 L2159.01,2227.19 L2159.08,2227.22 L2159.1,2227.23 L2159.11,2227.24 L2159.12,2227.25 L2159.12,2227.27 L2159.11,2227.29 L2159.12,2227.3 L2161.44,2229.06 L2165.01,2224.32 L2165.06,2224.25 L2166.6,2222.21 L2166.62,2222.19 L2166.65,2222.22 L2166.68,2222.26 L2166.7,2222.3 L2166.72,2222.34 L2166.74,2222.37 L2166.76,2222.41 L2166.82,2222.48 L2166.85,2222.51 L2166.89,2222.53 L2166.92,2222.55 L2166.96,2222.56 L2167,2222.57 L2167.05,2222.58 L2167.13,2222.61 L2167.16,2222.63 L2167.24,2222.67 L2167.28,2222.68 L2167.36,2222.68 L2167.4,2222.7 L2167.44,2222.71 L2167.48,2222.71 L2167.52,2222.7 L2167.56,2222.69 L2167.6,2222.69 L2167.64,2222.7 L2167.68,2222.72 L2167.71,2222.75 L2167.75,2222.77 L2167.77,2222.8 L2167.8,2222.84 L2167.85,2222.91 L2167.86,2222.94 L2167.87,2222.99 L2167.89,2223.02 L2167.89,2223.07 L2167.91,2223.1 L2167.91,2223.15 L2167.92,2223.19 L2167.92,2223.23 L2167.92,2223.27 L2167.93,2223.31 L2167.93,2223.4 L2167.94,2223.44 L2167.93,2223.57 L2167.94,2223.61 L2167.96,2223.65 L2168,2223.72 L2168.02,2223.76 L2168.03,2223.8 L2168.05,2223.84 L2168.08,2223.91 L2168.09,2223.96 L2168.12,2224.03 L2168.12,2224.08 L2168.13,2224.12 L2168.15,2224.16 L2168.15,2224.24 L2168.15,2224.28 L2168.17,2224.32 L2168.2,2224.35 L2168.22,2224.39 L2168.22,2224.48 L2168.22,2224.56 L2168.24,2224.6 L2168.25,2224.64 L2168.25,2224.69 L2168.26,2224.73 L2168.28,2224.76 L2168.3,2224.8 L2168.32,2224.84 L2168.33,2224.88 L2168.33,2224.97 L2168.32,2225.01 L2168.29,2225.04 L2168.26,2225.07 L2168.24,2225.1 L2168.22,2225.14 L2168.22,2225.23 L2168.22,2225.27 L2168.22,2225.44 L2168.21,2225.48 L2168.21,2225.53 L2168.21,2225.62 L2168.22,2225.74 L2168.26,2225.82 L2168.27,2225.86 L2168.29,2225.9 L2168.31,2225.93 L2168.31,2226.02 L2168.31,2226.07 L2168.31,2226.11 L2168.31,2226.19 L2168.3,2226.23 L2168.29,2226.27 L2168.27,2226.31 L2168.26,2226.35 L2168.25,2226.4 L2168.26,2226.44 L2168.28,2226.48 L2168.3,2226.51 L2168.31,2226.56 L2168.31,2226.64 L2168.32,2226.72 L2168.32,2226.77 L2168.33,2226.81 L2168.33,2226.9 L2168.33,2226.94 L2168.35,2227.02 L2168.36,2227.07 L2168.35,2227.11 L2168.35,2227.2 L2168.38,2227.32 L2168.39,2227.36 L2168.4,2227.41 L2168.42,2227.44 L2168.43,2227.48 L2168.44,2227.52 L2168.46,2227.56 L2168.48,2227.6 L2168.5,2227.64 L2168.51,2227.68 L2168.51,2227.72 L2168.51,2227.81 L2168.52,2227.85 L2168.52,2227.9 L2168.52,2227.94 L2168.53,2227.98 L2168.53,2228.07 L2168.56,2228.1 L2168.59,2228.13 L2168.62,2228.16 L2168.64,2228.19 L2168.67,2228.23 L2168.69,2228.26 L2168.73,2228.28 L2168.76,2228.3 L2168.8,2228.32 L2168.84,2228.35 L2168.87,2228.38 L2168.9,2228.41 L2168.93,2228.44 L2168.94,2228.47 L2168.95,2228.52 L2168.95,2228.56 L2168.96,2228.6 L2168.97,2228.64 L2168.99,2228.67 L2169.02,2228.7 L2169.06,2228.73 L2169.1,2228.74 L2169.13,2228.77 L2169.14,2228.81 L2169.14,2228.9 L2169.16,2228.93 L2169.19,2228.97 L2169.22,2229 L2169.24,2229.04 L2169.3,2229.15 L2169.32,2229.19 L2169.33,2229.23 L2169.33,2229.27 L2169.33,2229.31 L2169.34,2229.36 L2169.35,2229.44 L2169.37,2229.48 L2169.39,2229.51 L2169.42,2229.55 L2169.45,2229.58 L2169.49,2229.6 L2169.52,2229.63 L2169.55,2229.66 L2169.56,2229.7 L2169.58,2229.73 L2169.6,2229.82 L2169.61,2229.86 L2169.61,2229.9 L2169.62,2229.98 L2169.64,2230.02 L2169.68,2230.05 L2169.7,2230.08 L2169.71,2230.12 L2169.7,2230.17 L2169.68,2230.2 L2169.66,2230.24 L2169.66,2230.28 L2169.66,2230.32 L2169.67,2230.36 L2169.7,2230.4 L2169.75,2230.47 L2169.78,2230.5 L2169.82,2230.58 L2169.83,2230.66 L2169.83,2230.7 L2169.82,2230.74 L2169.78,2230.76 L2169.77,2230.8 L2169.76,2230.84 L2169.76,2230.89 L2169.76,2230.93 L2169.77,2230.97 L2169.77,2231.01 L2169.77,2231.06 L2169.77,2231.1 L2169.77,2231.14 L2169.77,2231.18 L2169.78,2231.26 L2169.79,2231.31 L2169.76,2231.39 L2169.75,2231.43 L2169.75,2231.47 L2169.73,2231.51 L2169.71,2231.55 L2169.67,2231.62 L2169.64,2231.65 L2169.62,2231.69 L2169.6,2231.73 L2169.59,2231.77 L2169.55,2231.84 L2169.51,2231.92 L2169.51,2231.96 L2169.54,2231.99 L2169.58,2232.01 L2169.61,2232.03 L2169.66,2232.03 L2169.74,2231.99 L2169.78,2232 L2169.8,2232.03 L2169.81,2232.12 L2169.85,2232.19 L2169.87,2232.23 L2169.87,2232.27 L2169.86,2232.31 L2169.83,2232.34 L2169.8,2232.35 L2169.76,2232.38 L2169.75,2232.42 L2169.73,2232.46 L2169.72,2232.5 L2169.68,2232.57 L2169.65,2232.61 L2169.62,2232.64 L2169.6,2232.67 L2169.58,2232.71 L2169.54,2232.71 L2169.49,2232.71 L2169.46,2232.69 L2169.43,2232.66 L2169.41,2232.62 L2169.38,2232.59 L2169.34,2232.57 L2169.25,2232.58 L2169.17,2232.58 L2169.13,2232.59 L2169.09,2232.61 L2169.05,2232.62 L2169.01,2232.64 L2168.97,2232.65 L2168.93,2232.66 L2168.89,2232.67 L2168.85,2232.7 L2168.81,2232.7 L2168.78,2232.67 L2168.74,2232.65 L2168.71,2232.62 L2168.67,2232.61 L2168.63,2232.6 L2168.58,2232.61 L2168.54,2232.6 L2168.46,2232.57 L2168.42,2232.57 L2168.38,2232.57 L2168.33,2232.57 L2168.26,2232.61 L2168.22,2232.61 L2168.18,2232.59 L2168.14,2232.58 L2168.12,2232.54 L2168.1,2232.5 L2168.08,2232.47 L2168.05,2232.44 L2168.02,2232.41 L2167.98,2232.38 L2167.94,2232.38 L2167.9,2232.36 L2167.86,2232.34 L2167.78,2232.36 L2167.75,2232.39 L2167.71,2232.41 L2167.67,2232.42 L2167.63,2232.44 L2167.61,2232.47 L2167.56,2232.54 L2167.52,2232.56 L2167.49,2232.59 L2167.46,2232.62 L2167.43,2232.65 L2167.4,2232.67 L2167.37,2232.7 L2167.33,2232.73 L2167.3,2232.75 L2167.27,2232.78 L2167.25,2232.82 L2167.21,2232.85 L2167.18,2232.87 L2167.16,2232.91 L2167.12,2232.99 L2167.09,2233.02 L2167.06,2233.04 L2167.02,2233.06 L2166.99,2233.09 L2166.96,2233.12 L2166.93,2233.15 L2166.9,2233.18 L2166.87,2233.2 L2166.84,2233.23 L2166.82,2233.27 L2166.79,2233.3 L2166.75,2233.31 L2166.69,2233.36 L2166.65,2233.38 L2166.62,2233.41 L2166.59,2233.44 L2166.55,2233.45 L2166.52,2233.48 L2166.49,2233.51 L2166.44,2233.58 L2166.42,2233.62 L2166.4,2233.66 L2166.37,2233.68 L2166.33,2233.69 L2166.25,2233.71 L2166.21,2233.72 L2166.16,2233.73 L2166.13,2233.75 L2166.06,2233.81 L2166.02,2233.82 L2165.98,2233.82 L2165.94,2233.82 L2165.9,2233.81 L2165.79,2233.74 L2165.76,2233.72 L2165.72,2233.69 L2165.69,2233.67 L2165.66,2233.65 L2165.59,2233.59 L2165.49,2233.52 L2165.45,2233.52 L2165.36,2233.52 L2165.32,2233.52 L2165.28,2233.5 L2165.24,2233.48 L2165.2,2233.48 L2165.16,2233.48 L2165.12,2233.48 L2165.08,2233.51 L2165.04,2233.52 L2165,2233.52 L2164.95,2233.51 L2164.89,2233.46 L2164.86,2233.42 L2164.85,2233.34 L2164.83,2233.3 L2164.8,2233.27 L2164.78,2233.24 L2164.75,2233.2 L2164.7,2233.14 L2164.66,2233.12 L2164.63,2233.09 L2164.6,2233.07 L2164.57,2233.04 L2164.54,2233.01 L2164.48,2232.95 L2164.44,2232.93 L2164.41,2232.91 L2164.33,2232.88 L2164.3,2232.85 L2164.27,2232.81 L2164.24,2232.79 L2164.15,2232.79 L2164.11,2232.78 L2164.07,2232.77 L2164.03,2232.76 L2163.95,2232.76 L2163.91,2232.74 L2163.88,2232.72 L2163.85,2232.69 L2163.81,2232.62 L2163.28,2232.35 L2163.26,2232.39 L2163.23,2232.41 L2163.2,2232.44 L2163.18,2232.48 L2163.15,2232.51 L2163.11,2232.53 L2163.08,2232.55 L2163.04,2232.57 L2163,2232.59 L2162.92,2232.62 L2162.88,2232.63 L2162.85,2232.66 L2162.77,2232.68 L2162.69,2232.69 L2162.65,2232.71 L2162.61,2232.71 L2162.57,2232.73 L2162.53,2232.75 L2162.5,2232.77 L2162.45,2232.78 L2162.42,2232.81 L2162.36,2232.86 L2162.32,2232.88 L2162.28,2232.89 L2162.24,2232.91 L2162.21,2232.94 L2162.13,2232.98 L2162.11,2233.01 L2162.08,2233.04 L2162.04,2233.07 L2161.97,2233.11 L2161.93,2233.14 L2161.91,2233.17 L2161.88,2233.2 L2161.81,2233.25 L2161.77,2233.25 L2161.75,2233.28 L2161.72,2233.31 L2161.68,2233.33 L2161.6,2233.36 L2161.57,2233.39 L2161.53,2233.4 L2161.51,2233.44 L2161.49,2233.48 L2161.41,2233.57 L2161.38,2233.61 L2161.36,2233.64 L2161.34,2233.68 L2161.26,2233.78 L2161.22,2233.79 L2161.19,2233.82 L2161.16,2233.85 L2161.13,2233.88 L2161.11,2233.92 L2161.08,2233.95 L2161.06,2233.99 L2161.02,2234.06 L2160.99,2234.09 L2160.95,2234.11 L2160.92,2234.14 L2160.87,2234.21 L2160.86,2234.25 L2160.83,2234.28 L2160.81,2234.32 L2160.78,2234.35 L2160.74,2234.37 L2160.71,2234.4 L2160.68,2234.42 L2160.65,2234.45 L2160.62,2234.48 L2160.59,2234.51 L2160.57,2234.55 L2160.53,2234.62 L2160.5,2234.65 L2160.46,2234.67 L2160.43,2234.7 L2160.41,2234.74 L2160.39,2234.78 L2160.38,2234.82 L2160.34,2234.85 L2160.32,2234.89 L2160.29,2234.92 L2160.27,2234.96 L2160.25,2234.99 L2160.22,2235.02 L2160.2,2235.06 L2160.19,2235.1 L2160.17,2235.14 L2160.14,2235.17 L2160.1,2235.18 L2160.03,2235.22 L2159.99,2235.24 L2159.97,2235.28 L2159.95,2235.31 L2159.93,2235.35 L2159.92,2235.4 L2159.91,2235.44 L2159.89,2235.48 L2159.87,2235.51 L2159.86,2235.55 L2159.84,2235.59 L2159.82,2235.68 L2159.81,2235.72 L2159.79,2235.8 L2159.78,2235.84 L2159.77,2235.88 L2159.77,2235.97 L2159.77,2236.01 L2159.76,2236.05 L2159.74,2236.09 L2159.72,2236.13 L2159.71,2236.21 L2159.7,2236.26 L2159.7,2236.38 L2159.68,2236.46 L2159.67,2236.5 L2159.67,2236.59 L2159.69,2236.63 L2159.71,2236.67 L2159.73,2236.7 L2159.74,2236.74 L2159.79,2236.82 L2159.83,2236.89 L2159.85,2236.92 L2159.88,2236.95 L2159.91,2236.97 L2159.95,2237 L2159.98,2237.03 L2159.99,2237.07 L2159.98,2237.11 L2159.95,2237.14 L2159.93,2237.18 L2159.92,2237.22 L2159.9,2237.25 L2159.9,2237.34 L2159.89,2237.38 L2159.88,2237.42 L2159.87,2237.5 L2159.89,2237.54 L2159.95,2237.6 L2159.99,2237.62 L2160.03,2237.64 L2160.06,2237.67 L2160.08,2237.7 L2160.09,2237.75 L2160.09,2238.05 L2160.1,2238.09 L2160.14,2238.11 L2160.17,2238.13 L2160.21,2238.13 L2160.25,2238.11 L2160.28,2238.08 L2160.31,2238.05 L2160.36,2238.06 L2160.39,2238.09 L2160.41,2238.12 L2160.43,2238.16 L2160.44,2238.2 L2160.46,2238.24 L2160.48,2238.28 L2160.52,2238.3 L2160.54,2238.34 L2160.55,2238.38 L2160.55,2238.46 L2160.56,2238.5 L2160.56,2238.54 L2160.58,2238.58 L2160.59,2238.62 L2160.6,2238.66 L2160.63,2238.69 L2160.74,2238.75 L2160.8,2238.8 L2160.82,2238.84 L2160.83,2238.89 L2160.83,2238.97 L2160.8,2239.05 L2160.79,2239.09 L2160.79,2239.13 L2160.8,2239.18 L2160.81,2239.21 L2160.83,2239.25 L2160.85,2239.29 L2160.86,2239.33 L2160.85,2239.37 L2160.84,2239.42 L2160.83,2239.5 L2160.83,2239.55 L2160.84,2239.59 L2160.87,2239.62 L2160.9,2239.65 L2160.93,2239.68 L2160.97,2239.76 L2160.99,2239.8 L2161.03,2239.88 L2161.05,2239.91 L2161.09,2239.93 L2161.13,2239.95 L2161.16,2239.98 L2161.17,2240.06 L2161.17,2240.1 L2161.13,2240.12 L2161.09,2240.13 L2161.06,2240.15 L2161.03,2240.18 L2161.03,2240.22 L2161.05,2240.26 L2161.08,2240.29 L2161.09,2240.34 L2161.05,2240.36 L2161.01,2240.34 L2160.98,2240.32 L2160.94,2240.29 L2160.91,2240.28 L2160.86,2240.28 L2160.86,2240.32 L2160.87,2240.36 L2160.87,2240.41 L2160.88,2240.45 L2160.88,2240.54 L2160.88,2240.58 L2160.9,2240.62 L2160.98,2240.72 L2161.02,2240.73 L2161.06,2240.74 L2161.11,2240.74 L2161.15,2240.73 L2161.19,2240.72 L2161.23,2240.7 L2161.27,2240.7 L2161.35,2240.68 L2161.37,2240.72 L2161.37,2240.76 L2161.34,2240.78 L2161.3,2240.78 L2161.26,2240.79 L2161.24,2240.83 L2161.25,2240.87 L2161.28,2240.91 L2161.32,2240.93 L2161.39,2240.97 L2161.43,2240.97 L2161.48,2240.97 L2161.52,2240.98 L2161.56,2241 L2161.58,2241.04 L2161.6,2241.07 L2161.62,2241.12 L2161.62,2241.2 L2161.63,2241.25 L2161.63,2241.29 L2161.62,2241.33 L2161.62,2241.37 L2161.63,2241.41 L2161.65,2241.45 L2161.66,2241.49 L2161.58,2241.53 L2161.55,2241.55 L2161.51,2241.58 L2161.49,2241.62 L2161.48,2241.65 L2161.46,2241.69 L2161.44,2241.73 L2161.41,2241.76 L2161.37,2241.77 L2161.33,2241.77 L2161.31,2241.73 L2161.31,2241.65 L2161.3,2241.61 L2161.27,2241.58 L2161.25,2241.55 L2161.21,2241.52 L2161.06,2241.45 L2161.02,2241.43 L2160.99,2241.4 L2160.95,2241.38 L2160.88,2241.32 L2160.85,2241.29 L2160.82,2241.26 L2160.79,2241.23 L2160.75,2241.21 L2160.71,2241.19 L2160.67,2241.2 L2160.64,2241.23 L2160.6,2241.22 L2160.57,2241.2 L2160.53,2241.19 L2160.48,2241.19 L2160.45,2241.27 L2160.41,2241.27 L2160.36,2241.26 L2160.33,2241.25 L2160.29,2241.23 L2160.21,2241.21 L2160.17,2241.19 L2160.1,2241.15 L2160.06,2241.13 L2160.03,2241.1 L2160,2241.06 L2159.95,2241 L2159.93,2240.97 L2159.88,2240.96 L2159.85,2240.98 L2159.81,2240.98 L2159.77,2240.96 L2159.73,2240.94 L2159.69,2240.92 L2159.66,2240.89 L2159.63,2240.87 L2159.59,2240.85 L2159.55,2240.83 L2159.51,2240.83 L2159.47,2240.83 L2159.42,2240.83 L2159.38,2240.82 L2159.35,2240.79 L2159.28,2240.69 L2159.25,2240.66 L2159.21,2240.64 L2159.18,2240.61 L2159.15,2240.58 L2159.11,2240.56 L2159.07,2240.58 L2159.03,2240.58 L2159.01,2240.54 L2159,2240.5 L2159,2240.46 L2159.01,2240.42 L2159.01,2240.36 L2159.03,2240.32 L2159.04,2240.28 L2159.05,2240.23 L2159.06,2240.18 L2159.06,2240.1 L2159.07,2240.06 L2159.08,2239.97 L2159.08,2239.93 L2159.07,2239.89 L2159,2239.84 L2158.97,2239.81 L2158.93,2239.79 L2158.89,2239.77 L2158.85,2239.75 L2158.81,2239.76 L2158.79,2239.79 L2158.78,2239.84 L2158.79,2239.88 L2158.81,2239.92 L2158.83,2239.95 L2158.86,2240.03 L2158.87,2240.07 L2158.89,2240.16 L2158.87,2240.22 L2158.85,2240.26 L2158.85,2240.3 L2158.87,2240.35 L2158.9,2240.4 L2158.9,2240.49 L2158.88,2240.53 L2158.85,2240.55 L2158.81,2240.54 L2158.78,2240.5 L2158.76,2240.47 L2158.71,2240.19 L2158.7,2240.14 L2158.65,2240.03 L2158.63,2240 L2158.61,2239.96 L2158.63,2239.92 L2158.65,2239.88 L2158.66,2239.84 L2158.66,2239.8 L2158.65,2239.76 L2158.64,2239.72 L2158.61,2239.68 L2158.59,2239.65 L2158.55,2239.63 L2158.51,2239.61 L2158.47,2239.59 L2158.4,2239.55 L2158.36,2239.53 L2158.32,2239.51 L2158.29,2239.48 L2158.26,2239.45 L2158.23,2239.42 L2158.2,2239.39 L2158.17,2239.37 L2158.13,2239.34 L2158.09,2239.33 L2158.06,2239.31 L2158.02,2239.25 L2157.46,2239.23 L2157.47,2239.27 L2157.48,2239.31 L2157.49,2239.35 L2157.49,2239.43 L2157.49,2239.47 L2157.49,2239.56 L2157.49,2239.6 L2157.49,2239.64 L2157.48,2239.68 L2157.47,2239.73 L2157.47,2239.77 L2157.45,2239.81 L2157.44,2239.85 L2157.43,2239.89 L2157.42,2239.93 L2157.4,2239.97 L2157.37,2240 L2157.36,2240.04 L2157.32,2240.12 L2157.28,2240.19 L2157.23,2240.26 L2157.19,2240.29 L2157.13,2240.35 L2157.1,2240.37 L2157.07,2240.4 L2157.03,2240.42 L2156.99,2240.44 L2156.96,2240.47 L2156.93,2240.49 L2156.89,2240.5 L2156.85,2240.51 L2156.81,2240.53 L2156.78,2240.55 L2156.75,2240.59 L2156.73,2240.63 L2156.7,2240.66 L2156.67,2240.69 L2156.63,2240.7 L2156.6,2240.73 L2156.54,2240.79 L2156.51,2240.82 L2156.48,2240.85 L2156.44,2240.86 L2156.41,2240.89 L2156.38,2240.92 L2156.32,2240.97 L2156.28,2240.99 L2156.25,2241.03 L2156.23,2241.07 L2156.19,2241.14 L2156.16,2241.16 L2156.08,2241.19 L2156.04,2241.21 L2155.97,2241.25 L2155.94,2241.28 L2155.85,2241.37 L2155.81,2241.4 L2155.78,2241.41 L2155.74,2241.43 L2155.69,2241.43 L2155.66,2241.45 L2155.63,2241.48 L2155.61,2241.52 L2155.55,2241.58 L2155.48,2241.64 L2155.44,2241.65 L2155.41,2241.68 L2155.36,2241.75 L2155.33,2241.78 L2155.26,2241.83 L2155.23,2241.86 L2155.2,2241.89 L2155.17,2241.92 L2155.14,2241.94 L2155.07,2242 L2155.05,2242.03 L2155.03,2242.07 L2155,2242.1 L2154.94,2242.16 L2154.91,2242.19 L2154.88,2242.23 L2154.82,2242.29 L2154.79,2242.31 L2154.67,2242.43 L2154.63,2242.45 L2154.6,2242.49 L2154.58,2242.52 L2154.55,2242.55 L2154.51,2242.57 L2154.48,2242.6 L2154.46,2242.63 L2154.44,2242.67 L2154.43,2242.71 L2154.4,2242.74 L2154.36,2242.77 L2154.33,2242.79 L2154.27,2242.85 L2154.25,2242.89 L2154.24,2242.93 L2154.23,2242.97 L2154.21,2243.01 L2154.19,2243.04 L2154.16,2243.07 L2154.12,2243.09 L2154.08,2243.11 L2154.04,2243.13 L2154.02,2243.16 L2153.99,2243.2 L2153.97,2243.23 L2153.94,2243.27 L2153.91,2243.29 L2153.85,2243.36 L2153.83,2243.39 L2153.8,2243.42 L2153.76,2243.45 L2153.74,2243.48 L2153.71,2243.51 L2153.68,2243.54 L2153.64,2243.56 L2153.61,2243.59 L2153.58,2243.62 L2153.54,2243.64 L2153.51,2243.67 L2153.48,2243.7 L2153.47,2243.74 L2153.44,2243.77 L2153.4,2243.79 L2153.37,2243.81 L2153.34,2243.85 L2153.32,2243.88 L2153.3,2243.91 L2153.28,2243.95 L2153.26,2243.99 L2153.24,2244.03 L2153.21,2244.11 L2153.19,2244.14 L2153.17,2244.18 L2153.14,2244.21 L2153.11,2244.24 L2153.07,2244.32 L2153.03,2244.39 L2152.97,2244.5 L2152.95,2244.54 L2152.91,2244.61 L2152.88,2244.65 L2152.86,2244.68 L2152.83,2244.71 L2152.8,2244.74 L2152.77,2244.77 L2152.73,2244.84 L2152.68,2244.91 L2152.65,2244.95 L2152.63,2244.98 L2152.62,2245.03 L2152.59,2245.06 L2152.57,2245.09 L2152.54,2245.13 L2152.52,2245.16 L2152.49,2245.2 L2152.48,2245.24 L2152.48,2245.28 L2152.47,2245.32 L2152.46,2245.36 L2152.44,2245.4 L2152.42,2245.44 L2152.41,2245.48 L2152.4,2245.53 L2152.39,2245.57 L2152.37,2245.6 L2152.36,2245.64 L2152.35,2245.73 L2152.34,2245.77 L2152.33,2245.81 L2152.32,2245.85 L2152.31,2245.89 L2152.29,2246.02 L2152.28,2246.06 L2152.25,2246.14 L2152.23,2246.18 L2152.21,2246.21 L2152.17,2246.29 L2152.16,2246.33 L2152.16,2246.37 L2152.15,2246.41 L2152.12,2246.44 L2152.09,2246.47 L2152.06,2246.5 L2152.03,2246.53 L2152.02,2246.57 L2152.03,2246.61 L2152.04,2246.65 L2152.04,2246.73 L2152.03,2246.77 L2151.99,2246.84 L2151.97,2246.89 L2151.96,2246.93 L2151.95,2246.97 L2151.95,2247.01 L2151.97,2247.05 L2151.99,2247.09 L2152.02,2247.12 L2152.05,2247.14 L2152.09,2247.16 L2152.12,2247.2 L2152.13,2247.24 L2152.15,2247.28 L2152.17,2247.31 L2152.18,2247.36 L2152.22,2247.37 L2152.26,2247.38 L2152.32,2247.45 L2152.35,2247.47 L2152.38,2247.5 L2152.42,2247.52 L2152.46,2247.53 L2152.5,2247.55 L2152.54,2247.62 L2152.55,2247.66 L2152.55,2247.7 L2152.55,2247.79 L2152.57,2247.82 L2152.58,2247.86 L2152.58,2247.91 L2152.56,2247.94 L2152.53,2247.97 L2152.5,2248 L2152.49,2248.04 L2152.51,2248.08 L2152.61,2248.16 L2152.62,2248.2 L2152.58,2248.23 L2152.55,2248.26 L2152.52,2248.29 L2152.49,2248.32 L2152.46,2248.35 L2152.42,2248.36 L2152.39,2248.39 L2152.36,2248.42 L2152.31,2248.49 L2152.28,2248.52 L2152.25,2248.55 L2152.23,2248.59 L2152.22,2248.63 L2152.23,2248.67 L2152.23,2248.71 L2152.24,2248.75 L2152.24,2248.79 L2152.24,2248.84 L2152.24,2248.92 L2152.25,2248.96 L2152.28,2249 L2152.3,2249.03 L2152.33,2249.07 L2152.33,2249.15 L2152.32,2249.19 L2152.31,2249.23 L2152.31,2249.28 L2152.31,2249.32 L2152.34,2249.35 L2152.38,2249.37 L2152.46,2249.38 L2152.5,2249.39 L2152.54,2249.4 L2152.63,2249.42 L2152.65,2249.45 L2152.68,2249.48 L2152.68,2249.52 L2152.68,2249.57 L2152.69,2249.65 L2152.69,2249.69 L2152.69,2249.74 L2152.69,2249.78 L2152.68,2249.86 L2152.68,2249.9 L2152.7,2249.94 L2152.71,2249.98 L2152.72,2250.02 L2152.71,2250.06 L2152.7,2250.1 L2152.7,2250.15 L2152.7,2250.19 L2152.72,2250.23 L2152.74,2250.26 L2152.77,2250.3 L2152.8,2250.33 L2152.82,2250.36 L2152.84,2250.4 L2152.85,2250.44 L2152.86,2250.49 L2152.88,2250.53 L2152.9,2250.56 L2152.94,2250.59 L2152.97,2250.62 L2153.03,2250.68 L2153.07,2250.7 L2153.1,2250.73 L2153.13,2250.76 L2153.14,2250.8 L2153.16,2250.84 L2153.25,2250.95 L2153.27,2250.98 L2153.29,2251.02 L2153.3,2251.06 L2153.3,2251.1 L2153.3,2251.14 L2153.32,2251.18 L2153.32,2251.23 L2153.33,2251.27 L2153.31,2251.31 L2153.3,2251.35 L2153.29,2251.39 L2153.29,2251.47 L2153.29,2251.52 L2153.28,2251.56 L2153.28,2251.68 L2153.28,2251.72 L2153.26,2251.76 L2153.22,2251.78 L2153.19,2251.81 L2153.17,2251.85 L2153.16,2251.89 L2153.14,2251.93 L2153.12,2251.97 L2153.1,2252 L2153.08,2252.04 L2153.08,2252.08 L2153.07,2252.12 L2153.05,2252.16 L2153.05,2252.2 L2153.06,2252.24 L2153.08,2252.33 L2153.09,2252.37 L2153.09,2252.41 L2153.08,2252.45 L2153.05,2252.48 L2153.01,2252.51 L2152.97,2252.5 L2152.94,2252.47 L2152.9,2252.45 L2152.87,2252.42 L2152.83,2252.41 L2152.79,2252.43 L2152.75,2252.45 L2152.72,2252.48 L2152.68,2252.49 L2152.64,2252.49 L2152.6,2252.5 L2152.55,2252.57 L2152.53,2252.6 L2152.49,2252.62 L2152.47,2252.66 L2152.47,2252.7 L2152.47,2252.78 L2152.48,2252.82 L2152.5,2252.85 L2152.52,2252.89 L2152.54,2252.93 L2152.58,2253 L2152.6,2253.04 L2152.62,2253.13 L2152.63,2253.17 L2152.63,2253.21 L2152.64,2253.25 L2152.66,2253.29 L2152.66,2253.33 L2152.66,2253.37 L2152.64,2253.41 L2152.63,2253.45 L2152.63,2253.54 L2152.66,2253.62 L2152.69,2253.65 L2152.72,2253.68 L2152.78,2253.73 L2152.84,2253.79 L2152.87,2253.82 L2152.94,2253.87 L2152.98,2253.89 L2153.01,2253.92 L2153.04,2253.95 L2153.07,2253.98 L2153.11,2254.05 L2153.12,2254.09 L2153.12,2254.14 L2153.13,2254.22 L2153.13,2254.26 L2153.15,2254.3 L2153.16,2254.34 L2153.19,2254.42 L2153.2,2254.46 L2153.19,2254.55 L2153.18,2254.59 L2153.17,2254.63 L2153.15,2254.67 L2153.12,2254.74 L2153.11,2254.79 L2153.12,2254.83 L2153.11,2254.87 L2153.08,2254.9 L2153.06,2254.94 L2153.04,2254.97 L2153.03,2255.01 L2153.02,2255.06 L2153.02,2255.1 L2153,2255.14 L2152.98,2255.17 L2152.96,2255.21 L2152.96,2255.25 L2152.95,2255.29 L2152.92,2255.33 L2152.9,2255.37 L2152.87,2255.4 L2152.84,2255.43 L2152.8,2255.45 L2152.71,2255.46 L2152.67,2255.47 L2152.64,2255.49 L2152.58,2255.56 L2152.54,2255.57 L2152.5,2255.57 L2152.46,2255.58 L2152.42,2255.58 L2152.37,2255.59 L2152.33,2255.58 L2152.29,2255.58 L2152.23,2255.63 L2152.19,2255.64 L2152.1,2255.64 L2152.04,2255.58 L2152.01,2255.55 L2151.99,2255.52 L2151.97,2255.48 L2151.93,2255.45 L2151.89,2255.44 L2151.85,2255.44 L2151.81,2255.44 L2151.77,2255.44 L2151.73,2255.45 L2151.69,2255.47 L2151.65,2255.47 L2151.61,2255.47 L2151.57,2255.49 L2151.53,2255.5 L2151.48,2255.51 L2151.35,2255.51 L2151.31,2255.51 L2151.27,2255.5 L2151.23,2255.48 L2151.19,2255.48 L2151.06,2255.48 L2150.98,2255.46 L2150.9,2255.42 L2150.87,2255.41 L2150.8,2255.36 L2150.77,2255.33 L2150.73,2255.31 L2150.69,2255.29 L2150.66,2255.26 L2150.63,2255.23 L2150.59,2255.21 L2150.54,2255.14 L2150.47,2255.09 L2150.44,2255.06 L2150.38,2255.01 L2150.31,2254.95 L2150.28,2254.93 L2150.25,2254.9 L2150.19,2254.84 L2150.16,2254.81 L2150.12,2254.78 L2150.06,2254.73 L2150.03,2254.7 L2150,2254.67 L2149.96,2254.65 L2149.92,2254.65 L2149.88,2254.65 L2149.84,2254.63 L2149.8,2254.61 L2149.76,2254.61 L2149.72,2254.6 L2149.68,2254.57 L2149.66,2254.54 L2149.63,2254.51 L2149.6,2254.48 L2149.56,2254.4 L2149.55,2254.36 L2149.53,2254.32 L2149.48,2254.25 L2149.48,2254.21 L2149.47,2254.17 L2149.44,2254.14 L2149.44,2254.09 L2149.44,2254.05 L2149.44,2254.01 L2149.43,2253.97 L2149.41,2253.93 L2149.39,2253.89 L2149.36,2253.82 L2149.34,2253.78 L2149.32,2253.75 L2149.29,2253.71 L2149.26,2253.68 L2149.24,2253.65 L2149.18,2253.59 L2149.13,2253.52 L2149.11,2253.48 L2149.1,2253.44 L2149.09,2253.4 L2149.08,2253.35 L2149.06,2253.32 L2149.04,2253.28 L2149.04,2253.24 L2149.02,2253.2 L2149.01,2253.16 L2149,2253.12 L2148.95,2253.04 L2148.94,2253 L2148.93,2252.96 L2148.91,2252.92 L2148.9,2252.88 L2148.88,2252.84 L2148.86,2252.81 L2148.84,2252.77 L2148.81,2252.74 L2148.71,2252.6 L2148.68,2252.57 L2148.65,2252.54 L2148.59,2252.49 L2148.55,2252.46 L2148.52,2252.44 L2148.49,2252.41 L2148.46,2252.37 L2148.45,2252.34 L2148.43,2252.3 L2148.41,2252.26 L2148.4,2252.22 L2148.38,2252.19 L2148.34,2252.11 L2148.32,2252.07 L2148.3,2252.04 L2148.26,2251.96 L2148.24,2251.92 L2148.22,2251.89 L2148.21,2251.85 L2148.19,2251.81 L2148.16,2251.78 L2148.14,2251.74 L2148.12,2251.7 L2148.03,2251.56 L2148.01,2251.52 L2147.99,2251.49 L2147.96,2251.46 L2147.94,2251.42 L2147.91,2251.39 L2147.89,2251.35 L2147.86,2251.31 L2147.81,2251.25 L2147.76,2251.18 L2147.74,2251.15 L2147.68,2251.09 L2147.58,2251 L2147.54,2250.98 L2147.5,2250.97 L2147.46,2250.95 L2147.43,2250.92 L2147.39,2250.91 L2147.35,2250.91 L2147.3,2250.9 L2147.26,2250.9 L2147.22,2250.9 L2147.18,2250.9 L2147.14,2250.91 L2147.11,2250.94 L2147.06,2250.95 L2147.02,2250.95 L2146.99,2250.98 L2146.94,2250.98 L2146.86,2250.98 L2146.82,2250.99 L2146.77,2250.99 L2146.73,2250.98 L2146.66,2250.95 L2146.62,2250.92 L2146.58,2250.91 L2146.55,2250.88 L2146.52,2250.85 L2146.46,2250.78 L2146.44,2250.75 L2146.42,2250.71 L2146.42,2250.67 L2146.41,2250.62 L2146.4,2250.58 L2146.4,2250.54 L2146.39,2250.5 L2146.37,2250.46 L2146.34,2250.43 L2146.3,2250.36 L2146.28,2250.32 L2146.26,2250.29 L2146.24,2250.25 L2146.23,2250.21 L2146.21,2250.17 L2146.18,2250.14 L2146.15,2250.11 L2146.11,2250.09 L2146.03,2250.07 L2145.99,2250.05 L2145.95,2250.04 L2145.87,2250.04 L2145.83,2250.04 L2145.54,2250.04 L2145.49,2250.04 L2145.45,2250.03 L2145.41,2250.02 L2145.34,2249.97 L2145.3,2249.96 L2145.26,2249.93 L2145.23,2249.9 L2145.16,2249.85 L2145.13,2249.82 L2145.1,2249.79 L2145.07,2249.76 L2145.04,2249.74 L2144.95,2249.64 L2144.88,2249.54 L2144.85,2249.46 L2144.8,2249.39 L2144.78,2249.35 L2144.78,2249.31 L2144.78,2249.27 L2144.76,2249.23 L2144.74,2249.2 L2144.72,2249.16 L2144.71,2249.12 L2144.71,2249.07 L2144.69,2249.03 L2144.6,2248.84 L2144.59,2248.8 L2144.58,2248.76 L2144.56,2248.72 L2144.54,2248.69 L2144.53,2248.64 L2144.52,2248.61 L2144.51,2248.56 L2144.43,2248.41 L2144.41,2248.38 L2144.39,2248.34 L2144.39,2248.3 L2144.38,2248.22 L2144.38,2248.18 L2144.37,2248.13 L2144.36,2248.09 L2144.33,2248.01 L2144.32,2247.97 L2144.29,2247.94 L2144.28,2247.9 L2144.26,2247.86 L2144.25,2247.82 L2144.24,2247.78 L2144.25,2247.74 L2144.25,2247.7 L2144.24,2247.65 L2144.22,2247.62 L2144.2,2247.58 L2144.18,2247.54 L2144.16,2247.5 L2144.15,2247.46 L2144.12,2247.39 L2144.11,2247.3 L2144.1,2247.26 L2144.08,2247.22 L2144.06,2247.19 L2144.06,2247.14 L2144.06,2247.1 L2144.06,2247.06 L2144.05,2247.01 L2144.05,2246.97 L2144.05,2246.93 L2144.04,2246.89 L2144.04,2246.8 L2144.04,2246.76 L2144.03,2246.68 L2144.03,2246.64 L2144.03,2246.47 L2144.03,2246.43 L2144.03,2246.39 L2144.03,2246.34 L2144.03,2246.3 L2144.03,2246.22 L2144.03,2246.18 L2144.04,2246.14 L2144.06,2246.1 L2144.07,2246.06 L2144.07,2246.02 L2144.08,2245.98 L2144.1,2245.94 L2144.1,2245.9 L2144.1,2245.86 L2144.11,2245.82 L2144.12,2245.78 L2144.12,2245.73 L2144.14,2245.7 L2144.14,2245.66 L2144.14,2245.61 L2144.15,2245.57 L2144.16,2245.53 L2144.18,2245.49 L2144.19,2245.41 L2144.21,2245.37 L2144.25,2245.3 L2144.26,2245.25 L2144.26,2245.21 L2144.26,2245.17 L2144.25,2245.13 L2144.24,2245.09 L2144.23,2245.05 L2144.23,2245.01 L2144.23,2244.92 L2144.24,2244.88 L2144.24,2244.84 L2144.25,2244.8 L2144.25,2244.76 L2144.25,2244.71 L2144.24,2244.67 L2144.2,2244.6 L2144.18,2244.56 L2144.16,2244.52 L2144.15,2244.43 L2144.14,2244.39 L2144.12,2244.36 L2144.11,2244.32 L2144.1,2244.24 L2144.1,2244.21 L2144.12,2244.17 L2144.14,2244.13 L2144.14,2244.09 L2144.15,2244.09 L2145.05,2243.81 L2145.6,2243.63 L2145.67,2243.61 L2146.22,2243.44 L2147.86,2242.95 L2147.87,2242.95 L2147.9,2242.89 L2147.92,2242.82 L2147.94,2242.78 L2147.97,2242.76 L2147.99,2242.74 L2148.03,2242.71 L2148.09,2242.71 L2148.13,2242.7 L2148.15,2242.68 L2148.18,2242.65 L2148.22,2242.64 L2148.25,2242.62 L2148.29,2242.62 L2148.33,2242.61 L2148.37,2242.61 L2148.39,2242.62 L2148.41,2242.63 L2148.42,2242.65 L2148.44,2242.69 L2148.45,2242.75 L2148.48,2242.74 L2151.16,2241.89 L2151.11,2241.83 L2151.09,2241.83 L2151.07,2241.83 L2151.05,2241.83 L2151.04,2241.82 L2151.03,2241.8 L2151.03,2241.79 L2151.02,2241.75 L2151.01,2241.74 L2151.01,2241.73 L2151.01,2241.72 L2150.99,2241.7 L2150.97,2241.66 L2150.96,2241.63 L2150.95,2241.61 L2150.95,2241.59 L2150.93,2241.56 L2149.03,2238.74 L2148.03,2237.26 L2147.72,2236.8 L2145.29,2233.21 L2146.63,2231.37 L2146.66,2231.33 L2146.65,2231.32 L2146.64,2231.3 L2146.64,2231.28 L2146.64,2231.26 L2146.63,2231.24 L2146.64,2231.23 L2146.64,2231.22 L2146.65,2231.21 L2146.68,2231.2 L2146.69,2231.2 L2146.71,2231.21 L2146.72,2231.22 L2146.73,2231.23 L2146.81,2231.12 L2147.82,2229.72 L2149.33,2227.64 L2146.04,2225.44 L2147.85,2223.47 L2150.17,2220.93 L2153.35,2223.44" />
 </g>

</svg>
